 http://img705.imageshack.us/img705/2741/wreckage2010.gif

Country.......: USA
Genre.........: Horror, Thriller
Date release..: 2010 [World]
Director......: John Mallory Asher
Writers.......: David Frigerio
Duration......: 83 min.
More..........: http://www.imdb.com/title/tt0884214
Trailer.......:

Pilot :
Group of friends during the trip the car breaks down. They have two options: go back on foot to the city or try to find a spare part at a nearby junkyard. Unfortunately for choosing the latter, not seeing the horror that lurks among the ruined cars.

Cats :
Aaron Paul   	 ...  	Rick
Justin Allen 	... 	Deputy Riley
Mike Erwin 	... 	Jared
Jake Frigerio 	... 	Young Ricky
Ruthanne Gibson 	... 	Sheila
Kelly Kruger 	... 	Jessica
Jordan Yale Levine 	... 	Jimmy
Chris Mastro 		
Scoot McNairy 	... 	Frank Jeffries
Roger Perry 	... 	Sheriff Macabee
Bevin Prince 	... 	Faye
Ariel Monica Putman 	... 	Savannah
Cameron Richardson 	... 	Kate
Erin Soto 	... 	EMT
Lars Van Wells 	... 	Young Wesley 

Data Technical :
!!! SAMPLE !!!
Audio.....: English
Subtitles.: None
Format                           : AVI
Format/Info                      : Audio Video Interleave
File size                        : 697 MiB
Duration                         : 1h 22mn
Overall bit rate                 : 1 177 Kbps
Writing application              : VirtualDubMod 1.5.10.2 (build 2540/release)
Writing library                  : VirtualDubMod build 2540/release
Video
ID                               : 0
Format                           : MPEG-4 Visual
Format profile                   : Advanced Simple@L5
Format settings, BVOP            : Yes
Format settings, QPel            : No
Format settings, GMC             : No warppoints
Format settings, Matrix          : Default (H.263)
Codec ID                         : XVID
Codec ID/Hint                    : XviD
Duration                         : 1h 22mn
Bit rate                         : 943 Kbps
Width                            : 640 pixels
Height                           : 352 pixels
Display aspect ratio             : 16:9
Frame rate                       : 25.000 fps
Color space                      : YUV
Chroma subsampling               : 4:2:0
Bit depth                        : 8 bits
Scan type                        : Progressive
Bits/(Pixel*Frame)               : 0.167
Stream size                      : 559 MiB (80%)
Writing library                  : XviD 1.2.1 (UTC 2008-12-04)
Audio
ID                               : 1
Format                           : AC-3
Format/Info                      : Audio Coding 3
Mode extension                   : CM (complete main)
Codec ID                         : 2000
Duration                         : 1h 22mn
Bit rate mode                    : Constant
Bit rate                         : 224 Kbps
Channel(s)                       : 2 channels
Channel positions                : Front: L R
Sampling rate                    : 48.0 KHz
Bit depth                        : 16 bits
Stream size                      : 133 MiB (19%)
Alignment                        : Split accross interleaves
Interleave, duration             : 40 ms (1.00 video frame)
Interleave, preload duration     : 500 ms

Screen : 
http://img225.imageshack.us/img225/8798/wreckage2010s1.jpg 
http://img849.imageshack.us/img849/9838/wreckage2010s2.jpg 
http://img109.imageshack.us/img109/7571/wreckage2010s3.jpg 
http://img21.imageshack.us/img21/2120/wreckage2010s4.jpg 
http://img824.imageshack.us/img824/7200/wreckage2010s5.jpg